<svg xmlns="http://www.w3.org/2000/svg" xmlns:xlink="http://www.w3.org/1999/xlink" width="500" zoomAndPan="magnify" viewBox="0 0 375 374.999991" height="500" preserveAspectRatio="xMidYMid meet" version="1.0"><defs><g/></defs><rect x="-37.5" width="450" fill="#ffffff" y="-37.499999" height="449.999989" fill-opacity="1"/><rect x="-37.5" width="450" fill="#ffffff" y="-37.499999" height="449.999989" fill-opacity="1"/><rect x="-37.5" width="450" fill="#ffffff" y="-37.499999" height="449.999989" fill-opacity="1"/><rect x="-37.5" width="450" fill="#ffffff" y="-37.499999" height="449.999989" fill-opacity="1"/><path fill="#ffbd59" d="M 206.277344 155.964844 C 194.796875 153.367188 182.679688 153.367188 171.203125 155.964844 C 113.734375 169.433594 88.460938 206.355469 86.742188 250.667969 C 85.660156 299.101562 117.214844 305.375 176.761719 271.886719 C 184.199219 267.8125 193.398438 267.851562 200.835938 271.96875 C 257.464844 303.097656 288.339844 301.019531 290.738281 256.742188 C 291.378906 209.671875 266.261719 170.03125 206.277344 155.964844 Z M 206.277344 155.964844 " fill-opacity="1" fill-rule="nonzero"/><path fill="#ffbd59" d="M 334.128906 129.511719 C 301.65625 126.996094 289.738281 167.195312 289.5 199.5625 C 289.5 200.917969 289.660156 202.277344 290.019531 203.558594 C 299.296875 237.644531 358.523438 201.71875 361.203125 173.027344 C 362.921875 154.726562 354.683594 131.949219 334.128906 129.511719 Z M 334.128906 129.511719 " fill-opacity="1" fill-rule="nonzero"/><path fill="#ffbd59" d="M 87.859375 199.5625 C 87.660156 167.195312 75.703125 126.996094 43.230469 129.511719 C 22.675781 131.988281 14.394531 154.765625 16.117188 173.027344 C 18.792969 201.71875 78.0625 237.644531 87.300781 203.558594 C 87.699219 202.277344 87.859375 200.917969 87.859375 199.5625 Z M 87.859375 199.5625 " fill-opacity="1" fill-rule="nonzero"/><path fill="#ffbd59" d="M 97.5 132.667969 C 116.015625 149.929688 134.652344 153.289062 155.167969 143.257812 C 177.203125 133.46875 180.320312 41.320312 136.691406 30.652344 C 99.777344 19.625 64.984375 102.738281 97.5 132.667969 Z M 97.5 132.667969 " fill-opacity="1" fill-rule="nonzero"/><path fill="#ffbd59" d="M 240.628906 30.652344 C 197.039062 41.28125 200.15625 133.429688 222.152344 143.257812 C 242.667969 153.289062 261.304688 149.929688 279.820312 132.667969 C 312.375 102.738281 277.582031 19.625 240.628906 30.652344 Z M 273.261719 98.304688 C 269.78125 108.214844 243.347656 117.324219 243.347656 117.324219 C 243.347656 117.324219 228.472656 93.667969 231.949219 83.757812 C 233.988281 77.925781 239.910156 74.609375 246.027344 76.765625 C 253.867188 79.523438 253.585938 88.234375 253.585938 88.234375 C 253.585938 88.234375 258.824219 81.28125 266.664062 84.039062 C 272.78125 86.195312 275.300781 92.511719 273.261719 98.304688 Z M 273.261719 98.304688 " fill-opacity="1" fill-rule="nonzero"/><g fill="#2e201d" fill-opacity="0.851"><g transform="translate(47.849319, 322.871692)"><g><path d="M 61.59375 -70.953125 C 63.675781 -71.554688 65.113281 -70.878906 65.90625 -68.921875 C 66.695312 -66.972656 66.238281 -65.390625 64.53125 -64.171875 C 63.550781 -63.554688 60.679688 -62.207031 55.921875 -60.125 C 54.691406 -59.632812 53.035156 -58.867188 50.953125 -57.828125 C 48.878906 -56.796875 47.539062 -56.160156 46.9375 -55.921875 C 46.082031 -55.546875 44.644531 -54.898438 42.625 -53.984375 C 40.601562 -53.066406 39.046875 -52.363281 37.953125 -51.875 C 43.085938 -39.53125 43.332031 -29.753906 38.6875 -22.546875 C 36.726562 -19.367188 34.128906 -17.015625 30.890625 -15.484375 C 27.648438 -13.960938 24.378906 -13.75 21.078125 -14.84375 C 17.898438 -15.820312 15.242188 -17.71875 13.109375 -20.53125 C 10.972656 -23.34375 9.71875 -26.398438 9.34375 -29.703125 C 8.375 -37.890625 11.859375 -45.46875 19.796875 -52.4375 C 19.796875 -52.4375 19.734375 -52.492188 19.609375 -52.609375 C 19.492188 -52.859375 19.4375 -53.046875 19.4375 -53.171875 C 17.476562 -56.953125 16.160156 -59.632812 15.484375 -61.21875 C 14.816406 -62.8125 13.929688 -65.164062 12.828125 -68.28125 C 11.734375 -71.40625 11.003906 -74.25 10.640625 -76.8125 C 9.171875 -86.226562 11.304688 -93.742188 17.046875 -99.359375 C 19.492188 -101.804688 22.796875 -103.210938 26.953125 -103.578125 C 31.109375 -103.941406 34.648438 -103.207031 37.578125 -101.375 C 40.265625 -99.789062 42.34375 -97.5625 43.8125 -94.6875 C 45.28125 -91.8125 45.832031 -88.847656 45.46875 -85.796875 C 44.976562 -82.378906 43.359375 -79.722656 40.609375 -77.828125 C 37.859375 -75.929688 34.894531 -75.898438 31.71875 -77.734375 C 29.882812 -79.078125 29.363281 -80.753906 30.15625 -82.765625 C 30.945312 -84.785156 32.503906 -85.550781 34.828125 -85.0625 C 36.296875 -84.695312 36.96875 -85.367188 36.84375 -87.078125 C 36.601562 -89.398438 35.75 -91.171875 34.28125 -92.390625 C 34.039062 -92.515625 33.859375 -92.578125 33.734375 -92.578125 C 30.921875 -94.046875 28.78125 -92.945312 27.3125 -89.28125 C 26.820312 -88.0625 26.546875 -86.6875 26.484375 -85.15625 C 26.429688 -83.625 26.492188 -82.21875 26.671875 -80.9375 C 26.859375 -79.65625 27.222656 -78.128906 27.765625 -76.359375 C 28.316406 -74.585938 28.773438 -73.210938 29.140625 -72.234375 C 29.515625 -71.253906 30.066406 -69.910156 30.796875 -68.203125 C 31.046875 -67.710938 31.171875 -67.34375 31.171875 -67.09375 C 31.773438 -65.625 32.691406 -63.609375 33.921875 -61.046875 C 37.703125 -62.878906 41.851562 -64.53125 46.375 -66 C 56.28125 -69.300781 61.351562 -70.953125 61.59375 -70.953125 Z M 27.6875 -32.078125 C 27.925781 -34.035156 26.945312 -37.335938 24.75 -41.984375 C 24.75 -42.109375 24.71875 -42.226562 24.65625 -42.34375 C 24.59375 -42.46875 24.5625 -42.59375 24.5625 -42.71875 C 21.019531 -38.6875 19.675781 -34.894531 20.53125 -31.34375 C 21.144531 -28.78125 22.394531 -27.648438 24.28125 -27.953125 C 26.175781 -28.265625 27.3125 -29.640625 27.6875 -32.078125 Z M 27.6875 -32.078125 "/></g></g></g><g fill="#2e201d" fill-opacity="0.851"><g transform="translate(96.064493, 322.871692)"><g><path d="M 80.84375 -69.671875 C 81.945312 -71.015625 83.414062 -71.164062 85.25 -70.125 C 87.082031 -69.082031 87.691406 -67.707031 87.078125 -66 C 85.609375 -62.332031 84.535156 -59.765625 83.859375 -58.296875 C 83.191406 -56.828125 82.0625 -54.65625 80.46875 -51.78125 C 78.882812 -48.914062 77.175781 -46.566406 75.34375 -44.734375 C 73.507812 -42.898438 71.429688 -41.429688 69.109375 -40.328125 C 63.609375 -37.765625 58.289062 -37.796875 53.15625 -40.421875 C 48.03125 -43.046875 44.976562 -47.351562 44 -53.34375 C 43.75 -54.6875 43.5625 -56.179688 43.4375 -57.828125 C 43.320312 -59.484375 43.296875 -60.859375 43.359375 -61.953125 C 43.421875 -63.054688 43.476562 -64.585938 43.53125 -66.546875 C 43.59375 -68.503906 43.625 -69.910156 43.625 -70.765625 C 43.875 -72.960938 43.90625 -75.679688 43.71875 -78.921875 C 43.539062 -82.160156 42.898438 -84.816406 41.796875 -86.890625 C 40.816406 -88.609375 39.625 -89.710938 38.21875 -90.203125 C 36.8125 -90.691406 35.375 -90.660156 33.90625 -90.109375 C 32.445312 -89.554688 31.046875 -88.546875 29.703125 -87.078125 C 26.523438 -84.148438 24.445312 -80.789062 23.46875 -77 C 23.707031 -73.945312 23.828125 -71.929688 23.828125 -70.953125 C 23.953125 -69.234375 24.132812 -67.0625 24.375 -64.4375 C 24.625 -61.8125 24.835938 -59.550781 25.015625 -57.65625 C 25.203125 -55.757812 25.359375 -53.585938 25.484375 -51.140625 C 25.609375 -48.703125 25.609375 -46.503906 25.484375 -44.546875 C 25.359375 -42.097656 24.347656 -40.265625 22.453125 -39.046875 C 20.554688 -37.828125 18.539062 -37.550781 16.40625 -38.21875 C 14.269531 -38.894531 12.894531 -40.394531 12.28125 -42.71875 C 10.8125 -48.09375 9.832031 -57.257812 9.34375 -70.21875 C 8.851562 -82.070312 9.40625 -91.113281 11 -97.34375 C 11.488281 -99.789062 13.140625 -101.015625 15.953125 -101.015625 C 18.765625 -101.015625 20.472656 -99.789062 21.078125 -97.34375 C 21.328125 -95.875 21.632812 -94.164062 22 -92.21875 C 24.8125 -95.144531 27.804688 -97.28125 30.984375 -98.625 C 36.484375 -100.832031 41.554688 -100.53125 46.203125 -97.71875 C 50.847656 -94.90625 54.144531 -90.6875 56.09375 -85.0625 C 57.5625 -80.78125 58.296875 -74.609375 58.296875 -66.546875 C 58.296875 -66.304688 58.234375 -65.328125 58.109375 -63.609375 C 57.992188 -61.898438 57.9375 -60.460938 57.9375 -59.296875 C 57.9375 -58.140625 58.117188 -56.921875 58.484375 -55.640625 C 58.847656 -54.359375 59.394531 -53.472656 60.125 -52.984375 C 62.570312 -51.148438 66.179688 -52.554688 70.953125 -57.203125 C 71.679688 -57.929688 72.410156 -58.691406 73.140625 -59.484375 C 73.878906 -60.285156 74.550781 -61.113281 75.15625 -61.96875 C 75.769531 -62.820312 76.382812 -63.644531 77 -64.4375 C 77.613281 -65.226562 78.285156 -66.113281 79.015625 -67.09375 C 79.742188 -68.070312 80.351562 -68.929688 80.84375 -69.671875 Z M 80.84375 -69.671875 "/></g></g></g><g fill="#2e201d" fill-opacity="0.851"><g transform="translate(162.612418, 322.871692)"><g><path d="M 47.671875 -67.28125 C 49.378906 -68.875 51.117188 -68.992188 52.890625 -67.640625 C 54.660156 -66.296875 55.054688 -64.585938 54.078125 -62.515625 C 52.734375 -59.703125 51.175781 -57.070312 49.40625 -54.625 C 47.632812 -52.1875 45.585938 -49.925781 43.265625 -47.84375 C 40.941406 -45.769531 38.523438 -44.148438 36.015625 -42.984375 C 33.515625 -41.828125 30.765625 -41.367188 27.765625 -41.609375 C 24.773438 -41.859375 21.8125 -42.960938 18.875 -44.921875 C 15.457031 -47.117188 12.832031 -50.203125 11 -54.171875 C 9.164062 -58.140625 8.3125 -62.265625 8.4375 -66.546875 C 8.550781 -69.234375 8.976562 -73.695312 9.71875 -79.9375 C 10.445312 -86.289062 11.238281 -90.75 12.09375 -93.3125 C 12.832031 -95.394531 14.207031 -96.769531 16.21875 -97.4375 C 18.238281 -98.113281 20.101562 -97.898438 21.8125 -96.796875 C 23.519531 -95.691406 24.375 -93.984375 24.375 -91.671875 C 24.625 -88.242188 24.195312 -81.335938 23.09375 -70.953125 C 22.488281 -64.347656 23.285156 -59.519531 25.484375 -56.46875 C 26.828125 -54.875 28.289062 -54.015625 29.875 -53.890625 C 31.46875 -53.773438 33.179688 -54.328125 35.015625 -55.546875 C 36.847656 -56.765625 38.4375 -57.984375 39.78125 -59.203125 C 41.125 -60.429688 42.648438 -61.992188 44.359375 -63.890625 C 46.078125 -65.785156 47.179688 -66.914062 47.671875 -67.28125 Z M 26.578125 -109.625 C 25.359375 -107.1875 23.28125 -105.96875 20.34375 -105.96875 C 17.414062 -105.96875 15.367188 -107.1875 14.203125 -109.625 C 13.046875 -112.070312 13.046875 -114.488281 14.203125 -116.875 C 15.367188 -119.257812 17.414062 -120.453125 20.34375 -120.453125 C 23.28125 -120.453125 25.359375 -119.257812 26.578125 -116.875 C 27.804688 -114.488281 27.804688 -112.070312 26.578125 -109.625 Z M 26.578125 -109.625 "/></g></g></g><g fill="#2e201d" fill-opacity="0.851"><g transform="translate(199.277943, 322.871692)"><g><path d="M 51.703125 -118.4375 C 53.410156 -118.3125 54.660156 -117.515625 55.453125 -116.046875 C 56.253906 -114.578125 56.285156 -113.109375 55.546875 -111.640625 C 54.816406 -110.179688 53.535156 -109.453125 51.703125 -109.453125 C 50.847656 -109.453125 50.050781 -109.453125 49.3125 -109.453125 C 42.226562 -109.328125 34.222656 -109.328125 25.296875 -109.453125 C 25.671875 -106.023438 26.53125 -99.601562 27.875 -90.1875 C 29.21875 -80.78125 30.132812 -73.507812 30.625 -68.375 C 32.207031 -52.976562 31.71875 -39.597656 29.15625 -28.234375 C 27.195312 -19.429688 23.894531 -13.566406 19.25 -10.640625 C 16.4375 -8.804688 13.472656 -8.039062 10.359375 -8.34375 C 7.242188 -8.644531 4.460938 -9.894531 2.015625 -12.09375 C 0.179688 -13.8125 0.0546875 -15.585938 1.640625 -17.421875 C 3.234375 -19.253906 5.070312 -19.738281 7.15625 -18.875 C 9.71875 -17.78125 11.671875 -19.066406 13.015625 -22.734375 C 14.359375 -26.398438 15.09375 -31.253906 15.21875 -37.296875 C 15.34375 -43.347656 15.3125 -48.453125 15.125 -52.609375 C 14.945312 -56.765625 14.734375 -60.003906 14.484375 -62.328125 C 13.992188 -68.441406 12.863281 -76.96875 11.09375 -87.90625 C 9.320312 -98.84375 8.191406 -106.082031 7.703125 -109.625 C 3.546875 -109.625 0.429688 -109.625 -1.640625 -109.625 C -2.617188 -109.625 -3.472656 -109.929688 -4.203125 -110.546875 C -4.941406 -111.160156 -5.367188 -111.863281 -5.484375 -112.65625 C -5.609375 -113.445312 -5.609375 -114.238281 -5.484375 -115.03125 C -5.367188 -115.832031 -4.941406 -116.535156 -4.203125 -117.140625 C -3.472656 -117.753906 -2.617188 -118.0625 -1.640625 -118.0625 C 1.898438 -118.3125 4.648438 -118.4375 6.609375 -118.4375 C 4.648438 -134.6875 5.6875 -147.03125 9.71875 -155.46875 C 13.144531 -162.675781 18.15625 -167.378906 24.75 -169.578125 C 28.175781 -170.679688 31.628906 -170.742188 35.109375 -169.765625 C 38.597656 -168.785156 41.5625 -166.953125 44 -164.265625 C 45.957031 -162.066406 47.363281 -159.4375 48.21875 -156.375 C 49.070312 -153.320312 49.007812 -150.328125 48.03125 -147.390625 C 46.8125 -144.097656 44.582031 -142.113281 41.34375 -141.4375 C 38.101562 -140.757812 35.203125 -141.523438 32.640625 -143.734375 C 30.804688 -145.316406 30.679688 -147.054688 32.265625 -148.953125 C 33.859375 -150.847656 35.632812 -151.242188 37.59375 -150.140625 C 38.8125 -149.535156 39.601562 -150.023438 39.96875 -151.609375 C 40.332031 -153.203125 40.394531 -154.488281 40.15625 -155.46875 C 39.789062 -157.414062 38.875 -158.910156 37.40625 -159.953125 C 35.9375 -160.992188 34.285156 -161.269531 32.453125 -160.78125 C 28.660156 -159.5625 25.972656 -154.914062 24.390625 -146.84375 C 23.046875 -139.757812 22.984375 -130.472656 24.203125 -118.984375 C 34.472656 -119.097656 43.640625 -118.914062 51.703125 -118.4375 Z M 51.703125 -118.4375 "/></g></g></g><g fill="#2e201d" fill-opacity="0.851"><g transform="translate(243.826566, 322.871692)"><g><path d="M 51.703125 -118.4375 C 53.410156 -118.3125 54.660156 -117.515625 55.453125 -116.046875 C 56.253906 -114.578125 56.285156 -113.109375 55.546875 -111.640625 C 54.816406 -110.179688 53.535156 -109.453125 51.703125 -109.453125 C 50.847656 -109.453125 50.050781 -109.453125 49.3125 -109.453125 C 42.226562 -109.328125 34.222656 -109.328125 25.296875 -109.453125 C 25.671875 -106.023438 26.53125 -99.601562 27.875 -90.1875 C 29.21875 -80.78125 30.132812 -73.507812 30.625 -68.375 C 32.207031 -52.976562 31.71875 -39.597656 29.15625 -28.234375 C 27.195312 -19.429688 23.894531 -13.566406 19.25 -10.640625 C 16.4375 -8.804688 13.472656 -8.039062 10.359375 -8.34375 C 7.242188 -8.644531 4.460938 -9.894531 2.015625 -12.09375 C 0.179688 -13.8125 0.0546875 -15.585938 1.640625 -17.421875 C 3.234375 -19.253906 5.070312 -19.738281 7.15625 -18.875 C 9.71875 -17.78125 11.671875 -19.066406 13.015625 -22.734375 C 14.359375 -26.398438 15.09375 -31.253906 15.21875 -37.296875 C 15.34375 -43.347656 15.3125 -48.453125 15.125 -52.609375 C 14.945312 -56.765625 14.734375 -60.003906 14.484375 -62.328125 C 13.992188 -68.441406 12.863281 -76.96875 11.09375 -87.90625 C 9.320312 -98.84375 8.191406 -106.082031 7.703125 -109.625 C 3.546875 -109.625 0.429688 -109.625 -1.640625 -109.625 C -2.617188 -109.625 -3.472656 -109.929688 -4.203125 -110.546875 C -4.941406 -111.160156 -5.367188 -111.863281 -5.484375 -112.65625 C -5.609375 -113.445312 -5.609375 -114.238281 -5.484375 -115.03125 C -5.367188 -115.832031 -4.941406 -116.535156 -4.203125 -117.140625 C -3.472656 -117.753906 -2.617188 -118.0625 -1.640625 -118.0625 C 1.898438 -118.3125 4.648438 -118.4375 6.609375 -118.4375 C 4.648438 -134.6875 5.6875 -147.03125 9.71875 -155.46875 C 13.144531 -162.675781 18.15625 -167.378906 24.75 -169.578125 C 28.175781 -170.679688 31.628906 -170.742188 35.109375 -169.765625 C 38.597656 -168.785156 41.5625 -166.953125 44 -164.265625 C 45.957031 -162.066406 47.363281 -159.4375 48.21875 -156.375 C 49.070312 -153.320312 49.007812 -150.328125 48.03125 -147.390625 C 46.8125 -144.097656 44.582031 -142.113281 41.34375 -141.4375 C 38.101562 -140.757812 35.203125 -141.523438 32.640625 -143.734375 C 30.804688 -145.316406 30.679688 -147.054688 32.265625 -148.953125 C 33.859375 -150.847656 35.632812 -151.242188 37.59375 -150.140625 C 38.8125 -149.535156 39.601562 -150.023438 39.96875 -151.609375 C 40.332031 -153.203125 40.394531 -154.488281 40.15625 -155.46875 C 39.789062 -157.414062 38.875 -158.910156 37.40625 -159.953125 C 35.9375 -160.992188 34.285156 -161.269531 32.453125 -160.78125 C 28.660156 -159.5625 25.972656 -154.914062 24.390625 -146.84375 C 23.046875 -139.757812 22.984375 -130.472656 24.203125 -118.984375 C 34.472656 -119.097656 43.640625 -118.914062 51.703125 -118.4375 Z M 51.703125 -118.4375 "/></g></g></g><g fill="#2e201d" fill-opacity="0.851"><g transform="translate(288.375189, 322.871692)"><g><path d="M 37.578125 -101.75 C 42.585938 -102.351562 46.832031 -100.914062 50.3125 -97.4375 C 53.800781 -93.957031 55.363281 -89.710938 55 -84.703125 C 54.507812 -78.828125 52.25 -74.734375 48.21875 -72.421875 C 45.53125 -70.703125 42.75 -70.300781 39.875 -71.21875 C 37 -72.132812 35.132812 -74.0625 34.28125 -77 C 33.550781 -79.5625 34.316406 -81.390625 36.578125 -82.484375 C 38.835938 -83.585938 40.820312 -83.285156 42.53125 -81.578125 C 43.257812 -81.941406 43.6875 -82.25 43.8125 -82.5 C 44.550781 -83.113281 45.039062 -84.09375 45.28125 -85.4375 C 45.769531 -87.875 45.097656 -89.765625 43.265625 -91.109375 C 41.066406 -92.085938 38.925781 -92.207031 36.84375 -91.46875 C 34.769531 -90.738281 32.878906 -89.582031 31.171875 -88 C 28.234375 -85.1875 26.398438 -80.664062 25.671875 -74.4375 C 25.671875 -73.695312 25.671875 -73.207031 25.671875 -72.96875 C 26.035156 -69.050781 26.28125 -63.671875 26.40625 -56.828125 C 26.644531 -54.503906 26.671875 -51.691406 26.484375 -48.390625 C 26.304688 -45.097656 25.726562 -42.410156 24.75 -40.328125 C 23.644531 -38.492188 22.113281 -37.640625 20.15625 -37.765625 C 18.207031 -37.890625 16.679688 -38.804688 15.578125 -40.515625 C 15.460938 -40.515625 15.40625 -40.453125 15.40625 -40.328125 C 14.789062 -41.304688 14.269531 -42.53125 13.84375 -44 C 13.414062 -45.46875 13.140625 -46.597656 13.015625 -47.390625 C 12.890625 -48.179688 12.765625 -49.644531 12.640625 -51.78125 C 12.523438 -53.925781 12.46875 -55.117188 12.46875 -55.359375 C 12.34375 -57.316406 12.097656 -60.097656 11.734375 -63.703125 C 11.367188 -67.304688 11.1875 -69.476562 11.1875 -70.21875 C 10.332031 -79.382812 9.171875 -88.976562 7.703125 -99 C 7.453125 -101.195312 8.210938 -102.90625 9.984375 -104.125 C 11.765625 -105.351562 13.507812 -105.109375 15.21875 -103.390625 C 18.03125 -100.585938 20.289062 -96.863281 22 -92.21875 C 26.15625 -97.71875 31.347656 -100.894531 37.578125 -101.75 Z M 42.71875 -81.578125 C 42.957031 -81.335938 43.140625 -81.09375 43.265625 -80.84375 C 43.023438 -81.09375 42.84375 -81.335938 42.71875 -81.578125 Z M 42.71875 -81.578125 "/></g></g></g><g fill="#38b6ff" fill-opacity="1"><g transform="translate(39.746951, 314.769318)"><g><path d="M 61.59375 -70.953125 C 63.675781 -71.554688 65.113281 -70.878906 65.90625 -68.921875 C 66.695312 -66.972656 66.238281 -65.390625 64.53125 -64.171875 C 63.550781 -63.554688 60.679688 -62.207031 55.921875 -60.125 C 54.691406 -59.632812 53.035156 -58.867188 50.953125 -57.828125 C 48.878906 -56.796875 47.539062 -56.160156 46.9375 -55.921875 C 46.082031 -55.546875 44.644531 -54.898438 42.625 -53.984375 C 40.601562 -53.066406 39.046875 -52.363281 37.953125 -51.875 C 43.085938 -39.53125 43.332031 -29.753906 38.6875 -22.546875 C 36.726562 -19.367188 34.128906 -17.015625 30.890625 -15.484375 C 27.648438 -13.960938 24.378906 -13.75 21.078125 -14.84375 C 17.898438 -15.820312 15.242188 -17.71875 13.109375 -20.53125 C 10.972656 -23.34375 9.71875 -26.398438 9.34375 -29.703125 C 8.375 -37.890625 11.859375 -45.46875 19.796875 -52.4375 C 19.796875 -52.4375 19.734375 -52.492188 19.609375 -52.609375 C 19.492188 -52.859375 19.4375 -53.046875 19.4375 -53.171875 C 17.476562 -56.953125 16.160156 -59.632812 15.484375 -61.21875 C 14.816406 -62.8125 13.929688 -65.164062 12.828125 -68.28125 C 11.734375 -71.40625 11.003906 -74.25 10.640625 -76.8125 C 9.171875 -86.226562 11.304688 -93.742188 17.046875 -99.359375 C 19.492188 -101.804688 22.796875 -103.210938 26.953125 -103.578125 C 31.109375 -103.941406 34.648438 -103.207031 37.578125 -101.375 C 40.265625 -99.789062 42.34375 -97.5625 43.8125 -94.6875 C 45.28125 -91.8125 45.832031 -88.847656 45.46875 -85.796875 C 44.976562 -82.378906 43.359375 -79.722656 40.609375 -77.828125 C 37.859375 -75.929688 34.894531 -75.898438 31.71875 -77.734375 C 29.882812 -79.078125 29.363281 -80.753906 30.15625 -82.765625 C 30.945312 -84.785156 32.503906 -85.550781 34.828125 -85.0625 C 36.296875 -84.695312 36.96875 -85.367188 36.84375 -87.078125 C 36.601562 -89.398438 35.75 -91.171875 34.28125 -92.390625 C 34.039062 -92.515625 33.859375 -92.578125 33.734375 -92.578125 C 30.921875 -94.046875 28.78125 -92.945312 27.3125 -89.28125 C 26.820312 -88.0625 26.546875 -86.6875 26.484375 -85.15625 C 26.429688 -83.625 26.492188 -82.21875 26.671875 -80.9375 C 26.859375 -79.65625 27.222656 -78.128906 27.765625 -76.359375 C 28.316406 -74.585938 28.773438 -73.210938 29.140625 -72.234375 C 29.515625 -71.253906 30.066406 -69.910156 30.796875 -68.203125 C 31.046875 -67.710938 31.171875 -67.34375 31.171875 -67.09375 C 31.773438 -65.625 32.691406 -63.609375 33.921875 -61.046875 C 37.703125 -62.878906 41.851562 -64.53125 46.375 -66 C 56.28125 -69.300781 61.351562 -70.953125 61.59375 -70.953125 Z M 27.6875 -32.078125 C 27.925781 -34.035156 26.945312 -37.335938 24.75 -41.984375 C 24.75 -42.109375 24.71875 -42.226562 24.65625 -42.34375 C 24.59375 -42.46875 24.5625 -42.59375 24.5625 -42.71875 C 21.019531 -38.6875 19.675781 -34.894531 20.53125 -31.34375 C 21.144531 -28.78125 22.394531 -27.648438 24.28125 -27.953125 C 26.175781 -28.265625 27.3125 -29.640625 27.6875 -32.078125 Z M 27.6875 -32.078125 "/></g></g></g><g fill="#38b6ff" fill-opacity="1"><g transform="translate(87.962125, 314.769318)"><g><path d="M 80.84375 -69.671875 C 81.945312 -71.015625 83.414062 -71.164062 85.25 -70.125 C 87.082031 -69.082031 87.691406 -67.707031 87.078125 -66 C 85.609375 -62.332031 84.535156 -59.765625 83.859375 -58.296875 C 83.191406 -56.828125 82.0625 -54.65625 80.46875 -51.78125 C 78.882812 -48.914062 77.175781 -46.566406 75.34375 -44.734375 C 73.507812 -42.898438 71.429688 -41.429688 69.109375 -40.328125 C 63.609375 -37.765625 58.289062 -37.796875 53.15625 -40.421875 C 48.03125 -43.046875 44.976562 -47.351562 44 -53.34375 C 43.75 -54.6875 43.5625 -56.179688 43.4375 -57.828125 C 43.320312 -59.484375 43.296875 -60.859375 43.359375 -61.953125 C 43.421875 -63.054688 43.476562 -64.585938 43.53125 -66.546875 C 43.59375 -68.503906 43.625 -69.910156 43.625 -70.765625 C 43.875 -72.960938 43.90625 -75.679688 43.71875 -78.921875 C 43.539062 -82.160156 42.898438 -84.816406 41.796875 -86.890625 C 40.816406 -88.609375 39.625 -89.710938 38.21875 -90.203125 C 36.8125 -90.691406 35.375 -90.660156 33.90625 -90.109375 C 32.445312 -89.554688 31.046875 -88.546875 29.703125 -87.078125 C 26.523438 -84.148438 24.445312 -80.789062 23.46875 -77 C 23.707031 -73.945312 23.828125 -71.929688 23.828125 -70.953125 C 23.953125 -69.234375 24.132812 -67.0625 24.375 -64.4375 C 24.625 -61.8125 24.835938 -59.550781 25.015625 -57.65625 C 25.203125 -55.757812 25.359375 -53.585938 25.484375 -51.140625 C 25.609375 -48.703125 25.609375 -46.503906 25.484375 -44.546875 C 25.359375 -42.097656 24.347656 -40.265625 22.453125 -39.046875 C 20.554688 -37.828125 18.539062 -37.550781 16.40625 -38.21875 C 14.269531 -38.894531 12.894531 -40.394531 12.28125 -42.71875 C 10.8125 -48.09375 9.832031 -57.257812 9.34375 -70.21875 C 8.851562 -82.070312 9.40625 -91.113281 11 -97.34375 C 11.488281 -99.789062 13.140625 -101.015625 15.953125 -101.015625 C 18.765625 -101.015625 20.472656 -99.789062 21.078125 -97.34375 C 21.328125 -95.875 21.632812 -94.164062 22 -92.21875 C 24.8125 -95.144531 27.804688 -97.28125 30.984375 -98.625 C 36.484375 -100.832031 41.554688 -100.53125 46.203125 -97.71875 C 50.847656 -94.90625 54.144531 -90.6875 56.09375 -85.0625 C 57.5625 -80.78125 58.296875 -74.609375 58.296875 -66.546875 C 58.296875 -66.304688 58.234375 -65.328125 58.109375 -63.609375 C 57.992188 -61.898438 57.9375 -60.460938 57.9375 -59.296875 C 57.9375 -58.140625 58.117188 -56.921875 58.484375 -55.640625 C 58.847656 -54.359375 59.394531 -53.472656 60.125 -52.984375 C 62.570312 -51.148438 66.179688 -52.554688 70.953125 -57.203125 C 71.679688 -57.929688 72.410156 -58.691406 73.140625 -59.484375 C 73.878906 -60.285156 74.550781 -61.113281 75.15625 -61.96875 C 75.769531 -62.820312 76.382812 -63.644531 77 -64.4375 C 77.613281 -65.226562 78.285156 -66.113281 79.015625 -67.09375 C 79.742188 -68.070312 80.351562 -68.929688 80.84375 -69.671875 Z M 80.84375 -69.671875 "/></g></g></g><g fill="#38b6ff" fill-opacity="1"><g transform="translate(154.510051, 314.769318)"><g><path d="M 47.671875 -67.28125 C 49.378906 -68.875 51.117188 -68.992188 52.890625 -67.640625 C 54.660156 -66.296875 55.054688 -64.585938 54.078125 -62.515625 C 52.734375 -59.703125 51.175781 -57.070312 49.40625 -54.625 C 47.632812 -52.1875 45.585938 -49.925781 43.265625 -47.84375 C 40.941406 -45.769531 38.523438 -44.148438 36.015625 -42.984375 C 33.515625 -41.828125 30.765625 -41.367188 27.765625 -41.609375 C 24.773438 -41.859375 21.8125 -42.960938 18.875 -44.921875 C 15.457031 -47.117188 12.832031 -50.203125 11 -54.171875 C 9.164062 -58.140625 8.3125 -62.265625 8.4375 -66.546875 C 8.550781 -69.234375 8.976562 -73.695312 9.71875 -79.9375 C 10.445312 -86.289062 11.238281 -90.75 12.09375 -93.3125 C 12.832031 -95.394531 14.207031 -96.769531 16.21875 -97.4375 C 18.238281 -98.113281 20.101562 -97.898438 21.8125 -96.796875 C 23.519531 -95.691406 24.375 -93.984375 24.375 -91.671875 C 24.625 -88.242188 24.195312 -81.335938 23.09375 -70.953125 C 22.488281 -64.347656 23.285156 -59.519531 25.484375 -56.46875 C 26.828125 -54.875 28.289062 -54.015625 29.875 -53.890625 C 31.46875 -53.773438 33.179688 -54.328125 35.015625 -55.546875 C 36.847656 -56.765625 38.4375 -57.984375 39.78125 -59.203125 C 41.125 -60.429688 42.648438 -61.992188 44.359375 -63.890625 C 46.078125 -65.785156 47.179688 -66.914062 47.671875 -67.28125 Z M 26.578125 -109.625 C 25.359375 -107.1875 23.28125 -105.96875 20.34375 -105.96875 C 17.414062 -105.96875 15.367188 -107.1875 14.203125 -109.625 C 13.046875 -112.070312 13.046875 -114.488281 14.203125 -116.875 C 15.367188 -119.257812 17.414062 -120.453125 20.34375 -120.453125 C 23.28125 -120.453125 25.359375 -119.257812 26.578125 -116.875 C 27.804688 -114.488281 27.804688 -112.070312 26.578125 -109.625 Z M 26.578125 -109.625 "/></g></g></g><g fill="#38b6ff" fill-opacity="1"><g transform="translate(191.175575, 314.769318)"><g><path d="M 51.703125 -118.4375 C 53.410156 -118.3125 54.660156 -117.515625 55.453125 -116.046875 C 56.253906 -114.578125 56.285156 -113.109375 55.546875 -111.640625 C 54.816406 -110.179688 53.535156 -109.453125 51.703125 -109.453125 C 50.847656 -109.453125 50.050781 -109.453125 49.3125 -109.453125 C 42.226562 -109.328125 34.222656 -109.328125 25.296875 -109.453125 C 25.671875 -106.023438 26.53125 -99.601562 27.875 -90.1875 C 29.21875 -80.78125 30.132812 -73.507812 30.625 -68.375 C 32.207031 -52.976562 31.71875 -39.597656 29.15625 -28.234375 C 27.195312 -19.429688 23.894531 -13.566406 19.25 -10.640625 C 16.4375 -8.804688 13.472656 -8.039062 10.359375 -8.34375 C 7.242188 -8.644531 4.460938 -9.894531 2.015625 -12.09375 C 0.179688 -13.8125 0.0546875 -15.585938 1.640625 -17.421875 C 3.234375 -19.253906 5.070312 -19.738281 7.15625 -18.875 C 9.71875 -17.78125 11.671875 -19.066406 13.015625 -22.734375 C 14.359375 -26.398438 15.09375 -31.253906 15.21875 -37.296875 C 15.34375 -43.347656 15.3125 -48.453125 15.125 -52.609375 C 14.945312 -56.765625 14.734375 -60.003906 14.484375 -62.328125 C 13.992188 -68.441406 12.863281 -76.96875 11.09375 -87.90625 C 9.320312 -98.84375 8.191406 -106.082031 7.703125 -109.625 C 3.546875 -109.625 0.429688 -109.625 -1.640625 -109.625 C -2.617188 -109.625 -3.472656 -109.929688 -4.203125 -110.546875 C -4.941406 -111.160156 -5.367188 -111.863281 -5.484375 -112.65625 C -5.609375 -113.445312 -5.609375 -114.238281 -5.484375 -115.03125 C -5.367188 -115.832031 -4.941406 -116.535156 -4.203125 -117.140625 C -3.472656 -117.753906 -2.617188 -118.0625 -1.640625 -118.0625 C 1.898438 -118.3125 4.648438 -118.4375 6.609375 -118.4375 C 4.648438 -134.6875 5.6875 -147.03125 9.71875 -155.46875 C 13.144531 -162.675781 18.15625 -167.378906 24.75 -169.578125 C 28.175781 -170.679688 31.628906 -170.742188 35.109375 -169.765625 C 38.597656 -168.785156 41.5625 -166.953125 44 -164.265625 C 45.957031 -162.066406 47.363281 -159.4375 48.21875 -156.375 C 49.070312 -153.320312 49.007812 -150.328125 48.03125 -147.390625 C 46.8125 -144.097656 44.582031 -142.113281 41.34375 -141.4375 C 38.101562 -140.757812 35.203125 -141.523438 32.640625 -143.734375 C 30.804688 -145.316406 30.679688 -147.054688 32.265625 -148.953125 C 33.859375 -150.847656 35.632812 -151.242188 37.59375 -150.140625 C 38.8125 -149.535156 39.601562 -150.023438 39.96875 -151.609375 C 40.332031 -153.203125 40.394531 -154.488281 40.15625 -155.46875 C 39.789062 -157.414062 38.875 -158.910156 37.40625 -159.953125 C 35.9375 -160.992188 34.285156 -161.269531 32.453125 -160.78125 C 28.660156 -159.5625 25.972656 -154.914062 24.390625 -146.84375 C 23.046875 -139.757812 22.984375 -130.472656 24.203125 -118.984375 C 34.472656 -119.097656 43.640625 -118.914062 51.703125 -118.4375 Z M 51.703125 -118.4375 "/></g></g></g><g fill="#38b6ff" fill-opacity="1"><g transform="translate(235.724198, 314.769318)"><g><path d="M 51.703125 -118.4375 C 53.410156 -118.3125 54.660156 -117.515625 55.453125 -116.046875 C 56.253906 -114.578125 56.285156 -113.109375 55.546875 -111.640625 C 54.816406 -110.179688 53.535156 -109.453125 51.703125 -109.453125 C 50.847656 -109.453125 50.050781 -109.453125 49.3125 -109.453125 C 42.226562 -109.328125 34.222656 -109.328125 25.296875 -109.453125 C 25.671875 -106.023438 26.53125 -99.601562 27.875 -90.1875 C 29.21875 -80.78125 30.132812 -73.507812 30.625 -68.375 C 32.207031 -52.976562 31.71875 -39.597656 29.15625 -28.234375 C 27.195312 -19.429688 23.894531 -13.566406 19.25 -10.640625 C 16.4375 -8.804688 13.472656 -8.039062 10.359375 -8.34375 C 7.242188 -8.644531 4.460938 -9.894531 2.015625 -12.09375 C 0.179688 -13.8125 0.0546875 -15.585938 1.640625 -17.421875 C 3.234375 -19.253906 5.070312 -19.738281 7.15625 -18.875 C 9.71875 -17.78125 11.671875 -19.066406 13.015625 -22.734375 C 14.359375 -26.398438 15.09375 -31.253906 15.21875 -37.296875 C 15.34375 -43.347656 15.3125 -48.453125 15.125 -52.609375 C 14.945312 -56.765625 14.734375 -60.003906 14.484375 -62.328125 C 13.992188 -68.441406 12.863281 -76.96875 11.09375 -87.90625 C 9.320312 -98.84375 8.191406 -106.082031 7.703125 -109.625 C 3.546875 -109.625 0.429688 -109.625 -1.640625 -109.625 C -2.617188 -109.625 -3.472656 -109.929688 -4.203125 -110.546875 C -4.941406 -111.160156 -5.367188 -111.863281 -5.484375 -112.65625 C -5.609375 -113.445312 -5.609375 -114.238281 -5.484375 -115.03125 C -5.367188 -115.832031 -4.941406 -116.535156 -4.203125 -117.140625 C -3.472656 -117.753906 -2.617188 -118.0625 -1.640625 -118.0625 C 1.898438 -118.3125 4.648438 -118.4375 6.609375 -118.4375 C 4.648438 -134.6875 5.6875 -147.03125 9.71875 -155.46875 C 13.144531 -162.675781 18.15625 -167.378906 24.75 -169.578125 C 28.175781 -170.679688 31.628906 -170.742188 35.109375 -169.765625 C 38.597656 -168.785156 41.5625 -166.953125 44 -164.265625 C 45.957031 -162.066406 47.363281 -159.4375 48.21875 -156.375 C 49.070312 -153.320312 49.007812 -150.328125 48.03125 -147.390625 C 46.8125 -144.097656 44.582031 -142.113281 41.34375 -141.4375 C 38.101562 -140.757812 35.203125 -141.523438 32.640625 -143.734375 C 30.804688 -145.316406 30.679688 -147.054688 32.265625 -148.953125 C 33.859375 -150.847656 35.632812 -151.242188 37.59375 -150.140625 C 38.8125 -149.535156 39.601562 -150.023438 39.96875 -151.609375 C 40.332031 -153.203125 40.394531 -154.488281 40.15625 -155.46875 C 39.789062 -157.414062 38.875 -158.910156 37.40625 -159.953125 C 35.9375 -160.992188 34.285156 -161.269531 32.453125 -160.78125 C 28.660156 -159.5625 25.972656 -154.914062 24.390625 -146.84375 C 23.046875 -139.757812 22.984375 -130.472656 24.203125 -118.984375 C 34.472656 -119.097656 43.640625 -118.914062 51.703125 -118.4375 Z M 51.703125 -118.4375 "/></g></g></g><g fill="#38b6ff" fill-opacity="1"><g transform="translate(280.272821, 314.769318)"><g><path d="M 37.578125 -101.75 C 42.585938 -102.351562 46.832031 -100.914062 50.3125 -97.4375 C 53.800781 -93.957031 55.363281 -89.710938 55 -84.703125 C 54.507812 -78.828125 52.25 -74.734375 48.21875 -72.421875 C 45.53125 -70.703125 42.75 -70.300781 39.875 -71.21875 C 37 -72.132812 35.132812 -74.0625 34.28125 -77 C 33.550781 -79.5625 34.316406 -81.390625 36.578125 -82.484375 C 38.835938 -83.585938 40.820312 -83.285156 42.53125 -81.578125 C 43.257812 -81.941406 43.6875 -82.25 43.8125 -82.5 C 44.550781 -83.113281 45.039062 -84.09375 45.28125 -85.4375 C 45.769531 -87.875 45.097656 -89.765625 43.265625 -91.109375 C 41.066406 -92.085938 38.925781 -92.207031 36.84375 -91.46875 C 34.769531 -90.738281 32.878906 -89.582031 31.171875 -88 C 28.234375 -85.1875 26.398438 -80.664062 25.671875 -74.4375 C 25.671875 -73.695312 25.671875 -73.207031 25.671875 -72.96875 C 26.035156 -69.050781 26.28125 -63.671875 26.40625 -56.828125 C 26.644531 -54.503906 26.671875 -51.691406 26.484375 -48.390625 C 26.304688 -45.097656 25.726562 -42.410156 24.75 -40.328125 C 23.644531 -38.492188 22.113281 -37.640625 20.15625 -37.765625 C 18.207031 -37.890625 16.679688 -38.804688 15.578125 -40.515625 C 15.460938 -40.515625 15.40625 -40.453125 15.40625 -40.328125 C 14.789062 -41.304688 14.269531 -42.53125 13.84375 -44 C 13.414062 -45.46875 13.140625 -46.597656 13.015625 -47.390625 C 12.890625 -48.179688 12.765625 -49.644531 12.640625 -51.78125 C 12.523438 -53.925781 12.46875 -55.117188 12.46875 -55.359375 C 12.34375 -57.316406 12.097656 -60.097656 11.734375 -63.703125 C 11.367188 -67.304688 11.1875 -69.476562 11.1875 -70.21875 C 10.332031 -79.382812 9.171875 -88.976562 7.703125 -99 C 7.453125 -101.195312 8.210938 -102.90625 9.984375 -104.125 C 11.765625 -105.351562 13.507812 -105.109375 15.21875 -103.390625 C 18.03125 -100.585938 20.289062 -96.863281 22 -92.21875 C 26.15625 -97.71875 31.347656 -100.894531 37.578125 -101.75 Z M 42.71875 -81.578125 C 42.957031 -81.335938 43.140625 -81.09375 43.265625 -80.84375 C 43.023438 -81.09375 42.84375 -81.335938 42.71875 -81.578125 Z M 42.71875 -81.578125 "/></g></g></g></svg>
